<svg xmlns="http://www.w3.org/2000/svg" width="133" height="40" fill="none" viewBox="0 0 133 40"><path fill="#fff" fill-rule="evenodd" d="M78.738 36.405c-1.48.483-3.008.627-4.4.627-2.04 0-4.141-.354-6.067-1.16l-.01-.005-.01-.004a13.9 13.9 0 0 1-4.91-3.628l-.011-.013-.011-.013a14.7 14.7 0 0 1-2.12-3.487l-2.7 4.794-.035.05c-1.034 1.52-2.571 2.772-4.584 3.337l-.012.003-.012.003c-.834.218-1.805.318-2.462.344-.687.027-2.105-.062-3.019-.235l-.012-.002c-1.422-.281-3.258-.902-4.762-2.392-1.137-1.127-1.952-2.452-2.305-4.15l-1.137-4.74a54 54 0 0 1-2.83 3.543c-1.444 1.653-3.32 3.569-5.49 5.131-2.02 1.457-5.245 3.303-9.209 3.303-3.876 0-7.126-1.778-9.166-3.147-2.226-1.493-4.227-3.337-5.806-4.955a63 63 0 0 1-3.945-4.464A62 62 0 0 1 2.23 23.23l-.003-.005-.142-.195a8.153 8.153 0 0 1 13.109-9.69 13.9 13.9 0 0 1 3.983-6.205c5.643-5.081 14.292-4.708 19.478.782a7.4 7.4 0 0 1 2.77-2.323c2.029-.991 4.07-.893 5.543-.602 1.192.236 2.822.774 4.197 2.114a7.55 7.55 0 0 1 1.914 2.98l1.177-2.2.02-.033c.657-1.082 1.765-2.42 3.55-3.201 1.838-.823 3.6-.712 4.878-.453 1.509.306 3.225 1.003 4.617 2.445q.357-.205.728-.393c2.213-1.121 4.623-1.54 6.996-1.54 1.89 0 3.804.257 5.623.926 1.91.702 3.654 1.911 5.044 3.254l.033.031.03.033c.247.27.503.577.75.904a14.8 14.8 0 0 1 3.426-2.306l.01-.005c2.124-1.02 4.456-1.444 6.783-1.444 3.161 0 6.15.8 8.661 2.674 1.922-2.007 4.479-2.372 6.039-2.372 1.128 0 2.283.198 3.395.652 1.583-.667 3.255-.954 4.928-.954 1.834 0 3.71.234 5.561 1.152a11.9 11.9 0 0 1 4.26 3.347l.012.015.011.015c1.227 1.603 2.03 3.42 2.28 5.48.097.669.269 2.205.269 3.72V29.86c0 2.02-.71 4.164-2.625 5.752l-.016.014-.018.014-.014.011c-1.917 1.558-4.214 1.72-5.5 1.72-1.488 0-3.369-.306-5.063-1.53a7 7 0 0 1-1.143-1.027 7 7 0 0 1-.885.867l-.032.026-.006.005c-1.915 1.55-4.206 1.711-5.49 1.711-1.488 0-3.37-.306-5.064-1.53a7 7 0 0 1-.666-.544c-1.285.727-2.671 1.215-4.079 1.53-1.5.373-2.922.544-4.444.544-2.004 0-3.967-.258-5.838-.845l-.008-.003a14.1 14.1 0 0 1-3.907-1.94 7 7 0 0 1-2.75 1.758c-1.178.442-2.285.5-2.97.5-.694 0-1.762-.065-2.905-.487M39.656 9.025a6 6 0 0 0-.672 1.46q-.392-.49-.803-.935l-.372-.412c-4.621-5.133-12.528-5.547-17.66-.926a12.45 12.45 0 0 0-4.115 8.53 52 52 0 0 1-1.627-2.032l-.217-.29-.049-.067v-.001a6.702 6.702 0 0 0-10.878 7.831l.136.187q.115.157.318.426a62 62 0 0 0 4.978 5.8c1.544 1.58 3.466 3.348 5.577 4.764 1.957 1.313 4.913 2.901 8.358 2.901 3.517 0 6.439-1.643 8.362-3.029 2.044-1.473 3.839-3.299 5.245-4.909a54 54 0 0 0 3.466-4.439l.01-.012a53 53 0 0 0 1.1-1.63l.071.3 1.827 7.616c.285 1.39.941 2.475 1.911 3.436 1.224 1.213 2.75 1.748 4.022 2 .806.151 2.114.233 2.692.21.594-.024 1.454-.115 2.153-.298 1.645-.46 2.911-1.484 3.777-2.756l4.311-7.653q.142.713.343 1.404.09.3.196.594c.533 1.51 1.304 2.962 2.32 4.19a12.5 12.5 0 0 0 4.395 3.249c1.723.721 3.63 1.048 5.506 1.048 1.41 0 2.89-.16 4.267-.665l.019-.006.024-.008.043-.015.08-.028.004-.002.075.033.2.079c.985.405 1.942.472 2.595.472.608 0 1.523-.054 2.472-.413a5.6 5.6 0 0 0 2.11-1.307q.165-.162.319-.348l.178-.229q.203-.278.376-.59.544.5 1.142.923a12.7 12.7 0 0 0 3.471 1.715c1.71.537 3.524.78 5.404.78 1.411 0 2.72-.159 4.11-.506 1.464-.326 2.864-.846 4.118-1.63q.273-.17.56-.368c.324.452.735.876 1.251 1.248 1.365.986 2.912 1.255 4.214 1.255 1.199 0 3.069-.162 4.586-1.394l.014-.012h.001l.006-.005a5.6 5.6 0 0 0 1.779-2.63c.191.567.475 1.123.875 1.636a5.6 5.6 0 0 0 1.144 1.097c1.365.987 2.912 1.255 4.214 1.255 1.199 0 3.069-.161 4.586-1.394l.005-.005.006-.005h.001l.008-.007c1.534-1.263 2.117-2.969 2.117-4.649V19.833c0-1.44-.166-2.917-.256-3.528-.213-1.786-.905-3.368-1.994-4.791a10.4 10.4 0 0 0-3.757-2.95c-1.583-.79-3.219-1.01-4.936-1.01-1.712 0-3.387.334-4.928 1.098a7.4 7.4 0 0 0-3.395-.796c-1.366 0-3.405.322-4.924 1.856l-.101.105q-.449.512-.764 1.073-.54-.52-1.121-.953c-2.221-1.655-4.886-2.383-7.79-2.383-2.154 0-4.263.393-6.155 1.301a13.2 13.2 0 0 0-3.258 2.233q-.235.22-.458.454l-.045.046q-.282.297-.545.614a7 7 0 0 0-.135-.256 9 9 0 0 0-.657-1.046 11 11 0 0 0-.786-.966C83.43 8.7 81.853 7.617 80.17 6.998c-1.624-.597-3.36-.837-5.123-.837-2.207 0-4.38.39-6.34 1.383A14 14 0 0 0 67.02 8.55l-.034-.048a7 7 0 0 0-.463-.582c-1.171-1.356-2.704-2.015-4.107-2.3-1.11-.225-2.538-.3-4.003.357-1.425.623-2.334 1.7-2.897 2.628l-2.971 5.556-.579-2.58a6.1 6.1 0 0 0-1.81-3.433c-1.1-1.074-2.43-1.528-3.469-1.733-1.3-.258-2.986-.32-4.624.482a5.9 5.9 0 0 0-2.408 2.129" clip-rule="evenodd"/><path fill="url(#paint0_linear_2792_5077)" d="M37.81 9.138c-4.622-5.133-12.53-5.547-17.662-.926a12.47 12.47 0 0 0-4.114 8.53 53 53 0 0 1-1.626-2.032l-.268-.358a6.702 6.702 0 0 0-10.877 7.831c.076.104.32.434.454.613a62 62 0 0 0 4.978 5.8c1.544 1.58 3.466 3.348 5.577 4.764 1.957 1.313 4.913 2.901 8.358 2.901 3.517 0 6.439-1.643 8.362-3.029 2.044-1.473 3.839-3.299 5.245-4.909a54 54 0 0 0 3.466-4.439c.42-.598.873-1.279 1.11-1.642-.035.055.041-.063 0 0l1.898 7.916c.285 1.39.941 2.475 1.911 3.436 1.224 1.213 2.75 1.748 4.022 2 .806.151 2.115.233 2.692.21.594-.024 1.454-.115 2.153-.298 1.645-.46 2.911-1.484 3.777-2.756l4.311-7.653q.142.713.343 1.404c.532 1.722 1.368 3.395 2.516 4.784a12.5 12.5 0 0 0 4.395 3.249c1.723.721 3.63 1.048 5.506 1.048 1.41 0 2.89-.16 4.267-.665.033-.01.069-.023.086-.029l.084-.03.075.033c.076.035.082.038.2.079.985.405 1.942.472 2.595.472.608 0 1.523-.054 2.472-.413.69-.242 1.644-.712 2.43-1.655l.177-.229q.204-.278.376-.59c1.323 1.217 2.9 2.09 4.613 2.638 1.71.537 3.524.78 5.404.78 1.411 0 2.72-.159 4.11-.506 1.464-.326 2.864-.846 4.118-1.63q.273-.17.56-.368c.325.452.735.876 1.251 1.248 1.365.986 2.912 1.255 4.214 1.255 1.199 0 3.084-.174 4.601-1.407a5.6 5.6 0 0 0 1.785-2.634 5.48 5.48 0 0 0 2.019 2.733c1.365.987 2.912 1.255 4.214 1.255 1.199 0 3.089-.178 4.606-1.411 1.534-1.263 2.117-2.969 2.117-4.649V19.833c0-1.44-.166-2.917-.256-3.528-.213-1.786-.905-3.368-1.994-4.791a10.4 10.4 0 0 0-3.757-2.95c-1.583-.79-3.219-1.01-4.936-1.01-1.712 0-3.387.334-4.928 1.098a7.4 7.4 0 0 0-3.395-.796c-1.396 0-3.496.336-5.025 1.961q-.449.512-.764 1.073c-2.419-2.332-5.5-3.336-8.911-3.336-2.154 0-4.263.393-6.155 1.301-1.667.817-3.126 1.926-4.306 3.347a7 7 0 0 0-.135-.256c-.372-.706-.923-1.444-1.443-2.012C83.43 8.7 81.853 7.617 80.17 6.998c-1.624-.597-3.36-.837-5.123-.837-2.207 0-4.38.39-6.34 1.383q-.884.447-1.684 1.006a7 7 0 0 0-.498-.63c-1.171-1.356-2.704-2.015-4.107-2.3-1.11-.225-2.538-.3-4.003.357-1.424.623-2.334 1.7-2.897 2.628l-2.971 5.556-.579-2.58a6.1 6.1 0 0 0-1.81-3.433c-1.1-1.074-2.43-1.528-3.469-1.733-1.3-.258-2.986-.32-4.624.482-1.493.73-2.593 1.993-3.08 3.589q-.392-.491-.803-.936z"/><path fill="#fff" fill-rule="evenodd" d="M61.1 8.902q-.875-.179-1.469.086c-.365.16-.693.477-.977.942l-8.242 15.444-3.097-13.954a1.9 1.9 0 0 0-.577-1.09c-.3-.298-.76-.511-1.358-.63-.792-.156-1.444-.114-1.952.134q-.761.373-.937 1.19a5 5 0 0 0-.074.5q-.028.288.064.781l3.85 16.032c.11.537.37 1.015.776 1.417q.616.608 1.863.855l.425.068c.35.07.83.086 1.288.068.46-.019.908-.073 1.183-.145q.867-.244 1.43-1.07l9.516-16.921a2.4 2.4 0 0 0 .341-.653q.139-.34.194-.602c.113-.538-.05-1.044-.47-1.5-.396-.473-.994-.793-1.776-.952m13.479.625c-1.724 0-3.206.305-4.436.928-1.215.616-2.224 1.43-3.014 2.437a9.9 9.9 0 0 0-1.684 3.436 15 15 0 0 0-.501 3.836c0 1.592.186 3.038.558 4.32.39 1.265.967 2.362 1.719 3.273a7.8 7.8 0 0 0 2.824 2.064c1.113.466 2.394.698 3.824.698 1.123 0 2.076-.135 2.825-.41a6.4 6.4 0 0 0 1.917-1.037l.506-.402.165.625q.074.273.257.521c.16.165.391.316.632.4.265.11.62.163 1.01.163.402 0 .745-.044 1.01-.152.255-.084.51-.231.66-.41q.194-.267.238-.582a3 3 0 0 0 .06-.564v-7.609c0-.64-.175-1.167-.575-1.518-.366-.349-.847-.527-1.393-.527h-5.184c-.608 0-1.114.154-1.465.51-.352.356-.503.866-.503 1.479 0 .431.132.847.377 1.226.314.447.885.623 1.591.623h3.046l-.176.55q-.151.468-.356.835a5.5 5.5 0 0 1-.965 1.26q-.67.605-1.428.89c-.488.19-1.083.292-1.785.292-1.636 0-2.826-.568-3.62-1.678-.79-1.134-1.206-2.758-1.206-4.896 0-.878.09-1.735.267-2.555q.292-1.218.888-2.123a4.26 4.26 0 0 1 1.54-1.454c.641-.365 1.423-.555 2.349-.555q.714.002 1.19.133c.323.07.613.175.86.31.25.138.503.325.723.534.246.2.519.443.804.718q.546.506.898.84c.3.286.704.413 1.173.413.59 0 1.106-.2 1.507-.59.397-.407.597-.908.597-1.483q-.001-.631-.329-1.191a5 5 0 0 0-.759-1.08c-.915-.884-1.908-1.53-2.967-1.92q-1.585-.58-3.67-.578m17.412 2.267q-1.786.875-2.947 2.291a9.2 9.2 0 0 0-1.712 3.28 13 13 0 0 0-.55 3.773q.002 2.539.694 4.393.694 1.822 1.96 3.015 1.266 1.195 3.086 1.778 1.864.586 4.143.586 1.573 0 3.185-.403c1.098-.244 2.04-.61 2.811-1.092.586-.367.985-.7 1.213-.995q.369-.469.37-1.074.002-.857-.587-1.55c-.397-.467-.807-.676-1.23-.676q-.624.002-1.053.269c-.325.2-.684.405-1.058.604l-1.413.707c-.576.26-1.28.39-2.089.39-1.51 0-2.712-.368-3.577-1.128s-1.368-1.887-1.53-3.355l-.053-.47h10.996c.774 0 1.346-.138 1.724-.382.368-.225.576-.643.576-1.323 0-3.09-.796-5.426-2.361-7.04-1.544-1.64-3.638-2.471-6.295-2.471q-2.492.002-4.303.873m4.191 2.724c-1.106 0-2.078.335-2.906 1.007-.754.634-1.212 1.538-1.376 2.682l-.069.482h8.352l-.027-.448a4.5 4.5 0 0 0-.225-1.14q-.235-.705-.74-1.289a3.4 3.4 0 0 0-1.217-.941q-.756-.355-1.792-.353" clip-rule="evenodd"/><path fill="#fff" d="M125.451 30.433c.387-.32.579-.731.579-1.393V18.994a23 23 0 0 0-.212-2.924l-.001-.011a5.6 5.6 0 0 0-1.136-2.786 6 6 0 0 0-2.2-1.724l-.013-.006c-.825-.412-1.879-.623-3.172-.623q-2.001.001-3.465.882l-.007.004c-.281.162-1.075.705-1.834 1.496l-.679.707-.049-.979c-.036-.733-.271-1.163-.651-1.374l-.013-.007q-.706-.424-1.642-.426c-.938 0-1.555.211-1.907.583-.341.388-.519.895-.519 1.54v15.656c0 .721.215 1.195.604 1.476.412.298.987.457 1.746.457.948 0 1.574-.164 1.926-.45.37-.304.575-.807.575-1.558v-8.938c-.005-.321.088-1 .289-1.683.38-1.287 1.085-2.178 2.299-2.75a4.78 4.78 0 0 1 3.73-.102c.738.296 1.089 1.056 1.265 1.728.181.696.215 1.445.215 1.926v9.932c0 .667.202 1.099.599 1.385.412.298.987.457 1.746.457.948 0 1.575-.164 1.927-.45"/><path fill="#b8ff26" fill-rule="evenodd" d="M22.725 10.108a8.205 8.205 0 0 1 11.589.607l.388.431.005.005c1.761 1.903 2.844 4.188 2.793 5.87v.005c-.01.41-.126.826-.358 1.203l-.028.045-.067.107-.249.386a50 50 0 0 1-4.099 5.427c-1.295 1.482-2.846 3.042-4.521 4.25-1.632 1.175-3.657 2.217-5.848 2.217-2.166 0-4.25-1.022-5.962-2.172-1.77-1.186-3.46-2.725-4.897-4.197a58 58 0 0 1-3.58-4.054 57 57 0 0 1-1.33-1.719l-.078-.105-.03-.042c-.213-.336-.35-.575-.423-1.036a2.39 2.39 0 0 1 .82-2.21c.646-.55 1.49-.65 2.05-.51.72.16 1.14.53 1.45.948l.001.001.001.002.015.02.061.083.25.334a53 53 0 0 0 4.23 4.931c1.32 1.351 2.749 2.635 4.136 3.565 1.442.968 2.55 1.357 3.286 1.357.544 0 1.262-.216 2.135-.721l.609-.352-.532-.46a5 5 0 0 1-.482-.472l-1.942-2.156a8.205 8.205 0 0 1 .607-11.588m9.107 7.416a45 45 0 0 1-2.75 3.51l-.025.028-.35.4-3.01-2.97-.01-.01a3.402 3.402 0 1 1 5.057-4.553l.388.431c.377.418.699.882.858 1.4a2.33 2.33 0 0 1-.11 1.678l-.02.046z" clip-rule="evenodd"/><defs><linearGradient id="paint0_linear_2792_5077" x1="130.711" x2="116.371" y1="5" y2="64.039" gradientUnits="userSpaceOnUse"><stop stop-color="#10121a"/><stop offset="1" stop-color="#0c090d"/></linearGradient></defs></svg>